<?xml version="1.0" encoding="UTF-8" standalone="no"?>
<svg width="1200px" height="675px" viewBox="0 0 1200 675" version="1.1" xmlns="http://www.w3.org/2000/svg" xmlns:xlink="http://www.w3.org/1999/xlink">
    <!-- Generator: Sketch 50.2 (55047) - http://www.bohemiancoding.com/sketch -->
    <title>matrixlayout</title>
    <desc>Created with Sketch.</desc>
    <defs>
        <path d="M0,0 L1200,0 L1200,675 L0,675 L0,0 Z" id="path-1"></path>
        <mask id="mask-2" maskContentUnits="userSpaceOnUse" maskUnits="objectBoundingBox" x="0" y="0" width="1200" height="675" fill="white">
            <use xlink:href="#path-1"></use>
        </mask>
    </defs>
    <g id="matrixlayout" stroke="none" stroke-width="1" fill="none" fill-rule="evenodd">
        <use id="Rectangle-5-Copy" stroke="#979797" mask="url(#mask-2)" stroke-width="2" stroke-dasharray="3,3" xlink:href="#path-1"></use>
        <path d="M599.5,0.499259649 L599.5,674.5" id="Line" stroke="#979797" stroke-linecap="square" stroke-dasharray="1,1,1"></path>
        <path d="M0.5,337.5 L1199.5,337.5" id="Line-2" stroke="#979797" stroke-linecap="square" stroke-dasharray="1,1,1"></path>
        <g id="Group" transform="translate(0.000000, 319.000000)">
            <rect id="Rectangle-21" fill="#F8CDB2" x="0" y="0" width="143" height="37"></rect>
            <path d="M31.432,23 L29.576,23 L23.608,14.968 L23.608,23 L21.72,23 L21.72,11.8 L23.576,11.8 L29.576,19.848 L29.576,11.8 L31.432,11.8 L31.432,23 Z M37.928,14.424 C40.552,14.424 42.36,16.168 42.36,18.744 C42.36,21.304 40.552,23.064 37.928,23.064 C35.288,23.064 33.48,21.304 33.48,18.744 C33.48,16.168 35.288,14.424 37.928,14.424 Z M37.928,16.008 C36.392,16.008 35.32,17.128 35.32,18.76 C35.32,20.408 36.392,21.528 37.928,21.528 C39.448,21.528 40.52,20.408 40.52,18.76 C40.52,17.128 39.448,16.008 37.928,16.008 Z M48.632,21.048 L49.096,22.456 C48.424,22.856 47.72,23.08 47,23.08 C45.72,23.08 44.616,22.344 44.616,20.6 L44.616,16.184 L43.416,16.184 L43.416,14.808 L44.616,14.808 L44.616,12.472 L46.44,12.472 L46.44,14.808 L48.952,14.808 L48.952,16.184 L46.44,16.184 L46.44,20.264 C46.44,21.144 46.776,21.416 47.352,21.416 C47.736,21.416 48.136,21.288 48.632,21.048 Z M58.424,14.424 C61.416,14.424 62.632,16.376 62.408,19.448 L55.976,19.448 C56.264,20.76 57.272,21.576 58.616,21.576 C59.544,21.576 60.392,21.224 61.016,20.584 L61.992,21.624 C61.16,22.536 59.944,23.064 58.472,23.064 C55.848,23.064 54.12,21.32 54.12,18.76 C54.12,16.184 55.896,14.44 58.424,14.424 Z M55.944,18.104 L60.808,18.104 C60.744,16.728 59.832,15.896 58.44,15.896 C57.096,15.896 56.152,16.744 55.944,18.104 Z M69.304,14.424 C71.288,14.424 72.472,15.672 72.472,17.704 L72.472,23 L70.632,23 L70.632,18.216 C70.632,16.936 69.864,16.152 68.584,16.152 C67.176,16.168 66.296,17.144 66.168,18.472 L66.168,23 L64.328,23 L64.328,14.488 L66.168,14.488 L66.168,16.12 C66.776,14.936 67.864,14.424 69.304,14.424 Z M82.616,14.488 L82.616,22.168 C82.616,24.616 80.872,26.152 78.2,26.152 C76.872,26.152 75.704,25.736 74.664,25.032 L75.448,23.704 C76.248,24.296 77.08,24.632 78.12,24.632 C79.736,24.632 80.792,23.688 80.792,22.216 L80.792,21.144 C80.216,22.072 79.256,22.584 77.976,22.584 C75.672,22.584 74.136,20.92 74.136,18.472 C74.136,16.072 75.656,14.44 77.912,14.424 C79.224,14.408 80.2,14.936 80.792,15.864 L80.792,14.488 L82.616,14.488 Z M78.344,21.144 C79.784,21.144 80.792,20.056 80.792,18.52 C80.792,16.984 79.784,15.912 78.344,15.912 C76.888,15.912 75.88,17 75.864,18.52 C75.88,20.056 76.872,21.144 78.344,21.144 Z M90.28,23 L90.28,21.96 C89.672,22.712 88.696,23.08 87.464,23.08 C85.624,23.08 84.472,21.944 84.472,20.44 C84.472,18.888 85.64,17.896 87.688,17.88 L90.264,17.88 L90.264,17.624 C90.264,16.552 89.576,15.912 88.232,15.912 C87.416,15.912 86.568,16.2 85.72,16.776 L84.968,15.496 C86.152,14.792 87.016,14.424 88.632,14.424 C90.824,14.424 92.056,15.544 92.072,17.416 L92.088,23 L90.28,23 Z M87.848,21.624 C89.16,21.624 90.168,20.936 90.264,20.008 L90.264,19.224 L87.96,19.224 C86.76,19.224 86.2,19.544 86.2,20.36 C86.2,21.128 86.824,21.624 87.848,21.624 Z M102.232,14.488 L102.232,22.168 C102.232,24.616 100.488,26.152 97.816,26.152 C96.488,26.152 95.32,25.736 94.28,25.032 L95.064,23.704 C95.864,24.296 96.696,24.632 97.736,24.632 C99.352,24.632 100.408,23.688 100.408,22.216 L100.408,21.144 C99.832,22.072 98.872,22.584 97.592,22.584 C95.288,22.584 93.752,20.92 93.752,18.472 C93.752,16.072 95.272,14.44 97.528,14.424 C98.84,14.408 99.816,14.936 100.408,15.864 L100.408,14.488 L102.232,14.488 Z M97.96,21.144 C99.4,21.144 100.408,20.056 100.408,18.52 C100.408,16.984 99.4,15.912 97.96,15.912 C96.504,15.912 95.496,17 95.48,18.52 C95.496,20.056 96.488,21.144 97.96,21.144 Z M108.296,14.424 C111.288,14.424 112.504,16.376 112.28,19.448 L105.848,19.448 C106.136,20.76 107.144,21.576 108.488,21.576 C109.416,21.576 110.264,21.224 110.888,20.584 L111.864,21.624 C111.032,22.536 109.816,23.064 108.344,23.064 C105.72,23.064 103.992,21.32 103.992,18.76 C103.992,16.184 105.768,14.44 108.296,14.424 Z M105.816,18.104 L110.68,18.104 C110.616,16.728 109.704,15.896 108.312,15.896 C106.968,15.896 106.024,16.744 105.816,18.104 Z M122.312,11.128 L122.312,23 L120.472,23 L120.472,21.544 C119.864,22.536 118.84,23.08 117.48,23.08 C115.032,23.08 113.4,21.304 113.4,18.712 C113.4,16.152 115.048,14.408 117.448,14.408 C118.824,14.408 119.848,14.968 120.472,15.96 L120.472,11.128 L122.312,11.128 Z M117.864,21.544 C119.4,21.544 120.472,20.392 120.472,18.776 C120.472,17.128 119.4,15.976 117.864,15.976 C116.328,15.976 115.256,17.144 115.24,18.776 C115.256,20.392 116.312,21.544 117.864,21.544 Z" id="Not-engaged" fill="#000000"></path>
        </g>
        <g id="Group-Copy-2" transform="translate(529.000000, 637.000000)">
            <rect id="Rectangle-21" fill="#CBE3EF" x="0" y="0" width="143" height="37"></rect>
            <path d="M38.168,23 L36.312,23 L30.344,14.968 L30.344,23 L28.456,23 L28.456,11.8 L30.312,11.8 L36.312,19.848 L36.312,11.8 L38.168,11.8 L38.168,23 Z M44.664,14.424 C47.288,14.424 49.096,16.168 49.096,18.744 C49.096,21.304 47.288,23.064 44.664,23.064 C42.024,23.064 40.216,21.304 40.216,18.744 C40.216,16.168 42.024,14.424 44.664,14.424 Z M44.664,16.008 C43.128,16.008 42.056,17.128 42.056,18.76 C42.056,20.408 43.128,21.528 44.664,21.528 C46.184,21.528 47.256,20.408 47.256,18.76 C47.256,17.128 46.184,16.008 44.664,16.008 Z M55.368,21.048 L55.832,22.456 C55.16,22.856 54.456,23.08 53.736,23.08 C52.456,23.08 51.352,22.344 51.352,20.6 L51.352,16.184 L50.152,16.184 L50.152,14.808 L51.352,14.808 L51.352,12.472 L53.176,12.472 L53.176,14.808 L55.688,14.808 L55.688,16.184 L53.176,16.184 L53.176,20.264 C53.176,21.144 53.512,21.416 54.088,21.416 C54.472,21.416 54.872,21.288 55.368,21.048 Z M62.568,10.936 C63.176,10.936 63.64,11.4 63.64,12.056 C63.64,12.696 63.176,13.16 62.568,13.16 C61.96,13.16 61.496,12.696 61.496,12.056 C61.496,11.4 61.96,10.936 62.568,10.936 Z M63.48,23 L61.656,23 L61.656,14.488 L63.48,14.488 L63.48,23 Z M71.176,14.424 C73.16,14.424 74.344,15.672 74.344,17.704 L74.344,23 L72.504,23 L72.504,18.216 C72.504,16.936 71.736,16.152 70.456,16.152 C69.048,16.168 68.168,17.144 68.04,18.472 L68.04,23 L66.2,23 L66.2,14.488 L68.04,14.488 L68.04,16.12 C68.648,14.936 69.736,14.424 71.176,14.424 Z M81.16,21.048 L81.624,22.456 C80.952,22.856 80.248,23.08 79.528,23.08 C78.248,23.08 77.144,22.344 77.144,20.6 L77.144,16.184 L75.944,16.184 L75.944,14.808 L77.144,14.808 L77.144,12.472 L78.968,12.472 L78.968,14.808 L81.48,14.808 L81.48,16.184 L78.968,16.184 L78.968,20.264 C78.968,21.144 79.304,21.416 79.88,21.416 C80.264,21.416 80.664,21.288 81.16,21.048 Z M86.728,14.424 C89.72,14.424 90.936,16.376 90.712,19.448 L84.28,19.448 C84.568,20.76 85.576,21.576 86.92,21.576 C87.848,21.576 88.696,21.224 89.32,20.584 L90.296,21.624 C89.464,22.536 88.248,23.064 86.776,23.064 C84.152,23.064 82.424,21.32 82.424,18.76 C82.424,16.184 84.2,14.44 86.728,14.424 Z M84.248,18.104 L89.112,18.104 C89.048,16.728 88.136,15.896 86.744,15.896 C85.4,15.896 84.456,16.744 84.248,18.104 Z M94.472,14.488 L94.472,16.184 C95.048,15.032 96.072,14.424 97.416,14.424 L97.416,16.184 C95.704,16.088 94.616,17.096 94.472,18.552 L94.472,23 L92.632,23 L92.632,14.488 L94.472,14.488 Z M102.44,14.424 C105.432,14.424 106.648,16.376 106.424,19.448 L99.992,19.448 C100.28,20.76 101.288,21.576 102.632,21.576 C103.56,21.576 104.408,21.224 105.032,20.584 L106.008,21.624 C105.176,22.536 103.96,23.064 102.488,23.064 C99.864,23.064 98.136,21.32 98.136,18.76 C98.136,16.184 99.912,14.44 102.44,14.424 Z M99.96,18.104 L104.824,18.104 C104.76,16.728 103.848,15.896 102.456,15.896 C101.112,15.896 100.168,16.744 99.96,18.104 Z M110.888,14.408 C111.96,14.408 113.096,14.728 113.864,15.272 L113.192,16.632 C112.44,16.168 111.496,15.88 110.744,15.88 C110.024,15.88 109.496,16.12 109.496,16.728 C109.496,18.296 114.024,17.448 114.008,20.536 C114.008,22.28 112.456,23.064 110.744,23.064 C109.496,23.064 108.168,22.648 107.32,21.88 L107.976,20.568 C108.712,21.224 109.896,21.624 110.824,21.624 C111.608,21.624 112.216,21.352 112.216,20.712 C112.216,18.968 107.736,19.944 107.752,16.872 C107.752,15.144 109.256,14.408 110.888,14.408 Z M120.216,21.048 L120.68,22.456 C120.008,22.856 119.304,23.08 118.584,23.08 C117.304,23.08 116.2,22.344 116.2,20.6 L116.2,16.184 L115,16.184 L115,14.808 L116.2,14.808 L116.2,12.472 L118.024,12.472 L118.024,14.808 L120.536,14.808 L120.536,16.184 L118.024,16.184 L118.024,20.264 C118.024,21.144 118.36,21.416 118.936,21.416 C119.32,21.416 119.72,21.288 120.216,21.048 Z" id="Not-interest" fill="#000000"></path>
        </g>
        <g id="Group-Copy-3" transform="translate(486.000000, 0.000000)">
            <rect id="Rectangle-21" fill="#C9E3F0" x="13" y="0" width="198" height="37"></rect>
            <path d="M61.028,23 L59.076,23 L54.612,11.8 L56.644,11.8 L60.1,20.904 L63.588,11.8 L65.556,11.8 L61.028,23 Z M69.604,14.424 C72.596,14.424 73.812,16.376 73.588,19.448 L67.156,19.448 C67.444,20.76 68.452,21.576 69.796,21.576 C70.724,21.576 71.572,21.224 72.196,20.584 L73.172,21.624 C72.34,22.536 71.124,23.064 69.652,23.064 C67.028,23.064 65.3,21.32 65.3,18.76 C65.3,16.184 67.076,14.44 69.604,14.424 Z M67.124,18.104 L71.988,18.104 C71.924,16.728 71.012,15.896 69.62,15.896 C68.276,15.896 67.332,16.744 67.124,18.104 Z M77.348,14.488 L77.348,16.184 C77.924,15.032 78.948,14.424 80.292,14.424 L80.292,16.184 C78.58,16.088 77.492,17.096 77.348,18.552 L77.348,23 L75.508,23 L75.508,14.488 L77.348,14.488 Z M89.444,14.488 L85.572,24.168 C85.044,25.512 84.084,26.184 82.804,26.184 C82.036,26.184 81.428,25.96 80.836,25.464 L81.62,24.04 C82.02,24.328 82.34,24.456 82.724,24.456 C83.284,24.456 83.732,24.152 84.02,23.512 L84.308,22.872 L80.788,14.488 L82.692,14.488 L85.236,20.936 L87.604,14.488 L89.444,14.488 Z M95.764,10.936 C96.372,10.936 96.836,11.4 96.836,12.056 C96.836,12.696 96.372,13.16 95.764,13.16 C95.156,13.16 94.692,12.696 94.692,12.056 C94.692,11.4 95.156,10.936 95.764,10.936 Z M96.676,23 L94.852,23 L94.852,14.488 L96.676,14.488 L96.676,23 Z M104.372,14.424 C106.356,14.424 107.54,15.672 107.54,17.704 L107.54,23 L105.7,23 L105.7,18.216 C105.7,16.936 104.932,16.152 103.652,16.152 C102.244,16.168 101.364,17.144 101.236,18.472 L101.236,23 L99.396,23 L99.396,14.488 L101.236,14.488 L101.236,16.12 C101.844,14.936 102.932,14.424 104.372,14.424 Z M114.356,21.048 L114.82,22.456 C114.148,22.856 113.444,23.08 112.724,23.08 C111.444,23.08 110.34,22.344 110.34,20.6 L110.34,16.184 L109.14,16.184 L109.14,14.808 L110.34,14.808 L110.34,12.472 L112.164,12.472 L112.164,14.808 L114.676,14.808 L114.676,16.184 L112.164,16.184 L112.164,20.264 C112.164,21.144 112.5,21.416 113.076,21.416 C113.46,21.416 113.86,21.288 114.356,21.048 Z M119.924,14.424 C122.916,14.424 124.132,16.376 123.908,19.448 L117.476,19.448 C117.764,20.76 118.772,21.576 120.116,21.576 C121.044,21.576 121.892,21.224 122.516,20.584 L123.492,21.624 C122.66,22.536 121.444,23.064 119.972,23.064 C117.348,23.064 115.62,21.32 115.62,18.76 C115.62,16.184 117.396,14.44 119.924,14.424 Z M117.444,18.104 L122.308,18.104 C122.244,16.728 121.332,15.896 119.94,15.896 C118.596,15.896 117.652,16.744 117.444,18.104 Z M127.668,14.488 L127.668,16.184 C128.244,15.032 129.268,14.424 130.612,14.424 L130.612,16.184 C128.9,16.088 127.812,17.096 127.668,18.552 L127.668,23 L125.828,23 L125.828,14.488 L127.668,14.488 Z M135.636,14.424 C138.628,14.424 139.844,16.376 139.62,19.448 L133.188,19.448 C133.476,20.76 134.484,21.576 135.828,21.576 C136.756,21.576 137.604,21.224 138.228,20.584 L139.204,21.624 C138.372,22.536 137.156,23.064 135.684,23.064 C133.06,23.064 131.332,21.32 131.332,18.76 C131.332,16.184 133.108,14.44 135.636,14.424 Z M133.156,18.104 L138.02,18.104 C137.956,16.728 137.044,15.896 135.652,15.896 C134.308,15.896 133.364,16.744 133.156,18.104 Z M144.084,14.408 C145.156,14.408 146.292,14.728 147.06,15.272 L146.388,16.632 C145.636,16.168 144.692,15.88 143.94,15.88 C143.22,15.88 142.692,16.12 142.692,16.728 C142.692,18.296 147.22,17.448 147.204,20.536 C147.204,22.28 145.652,23.064 143.94,23.064 C142.692,23.064 141.364,22.648 140.516,21.88 L141.172,20.568 C141.908,21.224 143.092,21.624 144.02,21.624 C144.804,21.624 145.412,21.352 145.412,20.712 C145.412,18.968 140.932,19.944 140.948,16.872 C140.948,15.144 142.452,14.408 144.084,14.408 Z M153.412,21.048 L153.876,22.456 C153.204,22.856 152.5,23.08 151.78,23.08 C150.5,23.08 149.396,22.344 149.396,20.6 L149.396,16.184 L148.196,16.184 L148.196,14.808 L149.396,14.808 L149.396,12.472 L151.22,12.472 L151.22,14.808 L153.732,14.808 L153.732,16.184 L151.22,16.184 L151.22,20.264 C151.22,21.144 151.556,21.416 152.132,21.416 C152.516,21.416 152.916,21.288 153.412,21.048 Z M158.98,14.424 C161.972,14.424 163.188,16.376 162.964,19.448 L156.532,19.448 C156.82,20.76 157.828,21.576 159.172,21.576 C160.1,21.576 160.948,21.224 161.572,20.584 L162.548,21.624 C161.716,22.536 160.5,23.064 159.028,23.064 C156.404,23.064 154.676,21.32 154.676,18.76 C154.676,16.184 156.452,14.44 158.98,14.424 Z M156.5,18.104 L161.364,18.104 C161.3,16.728 160.388,15.896 158.996,15.896 C157.652,15.896 156.708,16.744 156.5,18.104 Z M172.996,11.128 L172.996,23 L171.156,23 L171.156,21.544 C170.548,22.536 169.524,23.08 168.164,23.08 C165.716,23.08 164.084,21.304 164.084,18.712 C164.084,16.152 165.732,14.408 168.132,14.408 C169.508,14.408 170.532,14.968 171.156,15.96 L171.156,11.128 L172.996,11.128 Z M168.548,21.544 C170.084,21.544 171.156,20.392 171.156,18.776 C171.156,17.128 170.084,15.976 168.548,15.976 C167.012,15.976 165.94,17.144 165.924,18.776 C165.94,20.392 166.996,21.544 168.548,21.544 Z" id="Very-interested" fill="#000000"></path>
        </g>
        <g id="Group-Copy" transform="translate(1057.000000, 319.000000)">
            <rect id="Rectangle-21" fill="#FACDB2" x="0" y="0" width="143" height="37"></rect>
            <path d="M23.904,23 L21.952,23 L17.488,11.8 L19.52,11.8 L22.976,20.904 L26.464,11.8 L28.432,11.8 L23.904,23 Z M32.48,14.424 C35.472,14.424 36.688,16.376 36.464,19.448 L30.032,19.448 C30.32,20.76 31.328,21.576 32.672,21.576 C33.6,21.576 34.448,21.224 35.072,20.584 L36.048,21.624 C35.216,22.536 34,23.064 32.528,23.064 C29.904,23.064 28.176,21.32 28.176,18.76 C28.176,16.184 29.952,14.44 32.48,14.424 Z M30,18.104 L34.864,18.104 C34.8,16.728 33.888,15.896 32.496,15.896 C31.152,15.896 30.208,16.744 30,18.104 Z M40.224,14.488 L40.224,16.184 C40.8,15.032 41.824,14.424 43.168,14.424 L43.168,16.184 C41.456,16.088 40.368,17.096 40.224,18.552 L40.224,23 L38.384,23 L38.384,14.488 L40.224,14.488 Z M52.32,14.488 L48.448,24.168 C47.92,25.512 46.96,26.184 45.68,26.184 C44.912,26.184 44.304,25.96 43.712,25.464 L44.496,24.04 C44.896,24.328 45.216,24.456 45.6,24.456 C46.16,24.456 46.608,24.152 46.896,23.512 L47.184,22.872 L43.664,14.488 L45.568,14.488 L48.112,20.936 L50.48,14.488 L52.32,14.488 Z M61.232,14.424 C64.224,14.424 65.44,16.376 65.216,19.448 L58.784,19.448 C59.072,20.76 60.08,21.576 61.424,21.576 C62.352,21.576 63.2,21.224 63.824,20.584 L64.8,21.624 C63.968,22.536 62.752,23.064 61.28,23.064 C58.656,23.064 56.928,21.32 56.928,18.76 C56.928,16.184 58.704,14.44 61.232,14.424 Z M58.752,18.104 L63.616,18.104 C63.552,16.728 62.64,15.896 61.248,15.896 C59.904,15.896 58.96,16.744 58.752,18.104 Z M72.112,14.424 C74.096,14.424 75.28,15.672 75.28,17.704 L75.28,23 L73.44,23 L73.44,18.216 C73.44,16.936 72.672,16.152 71.392,16.152 C69.984,16.168 69.104,17.144 68.976,18.472 L68.976,23 L67.136,23 L67.136,14.488 L68.976,14.488 L68.976,16.12 C69.584,14.936 70.672,14.424 72.112,14.424 Z M85.424,14.488 L85.424,22.168 C85.424,24.616 83.68,26.152 81.008,26.152 C79.68,26.152 78.512,25.736 77.472,25.032 L78.256,23.704 C79.056,24.296 79.888,24.632 80.928,24.632 C82.544,24.632 83.6,23.688 83.6,22.216 L83.6,21.144 C83.024,22.072 82.064,22.584 80.784,22.584 C78.48,22.584 76.944,20.92 76.944,18.472 C76.944,16.072 78.464,14.44 80.72,14.424 C82.032,14.408 83.008,14.936 83.6,15.864 L83.6,14.488 L85.424,14.488 Z M81.152,21.144 C82.592,21.144 83.6,20.056 83.6,18.52 C83.6,16.984 82.592,15.912 81.152,15.912 C79.696,15.912 78.688,17 78.672,18.52 C78.688,20.056 79.68,21.144 81.152,21.144 Z M93.088,23 L93.088,21.96 C92.48,22.712 91.504,23.08 90.272,23.08 C88.432,23.08 87.28,21.944 87.28,20.44 C87.28,18.888 88.448,17.896 90.496,17.88 L93.072,17.88 L93.072,17.624 C93.072,16.552 92.384,15.912 91.04,15.912 C90.224,15.912 89.376,16.2 88.528,16.776 L87.776,15.496 C88.96,14.792 89.824,14.424 91.44,14.424 C93.632,14.424 94.864,15.544 94.88,17.416 L94.896,23 L93.088,23 Z M90.656,21.624 C91.968,21.624 92.976,20.936 93.072,20.008 L93.072,19.224 L90.768,19.224 C89.568,19.224 89.008,19.544 89.008,20.36 C89.008,21.128 89.632,21.624 90.656,21.624 Z M105.04,14.488 L105.04,22.168 C105.04,24.616 103.296,26.152 100.624,26.152 C99.296,26.152 98.128,25.736 97.088,25.032 L97.872,23.704 C98.672,24.296 99.504,24.632 100.544,24.632 C102.16,24.632 103.216,23.688 103.216,22.216 L103.216,21.144 C102.64,22.072 101.68,22.584 100.4,22.584 C98.096,22.584 96.56,20.92 96.56,18.472 C96.56,16.072 98.08,14.44 100.336,14.424 C101.648,14.408 102.624,14.936 103.216,15.864 L103.216,14.488 L105.04,14.488 Z M100.768,21.144 C102.208,21.144 103.216,20.056 103.216,18.52 C103.216,16.984 102.208,15.912 100.768,15.912 C99.312,15.912 98.304,17 98.288,18.52 C98.304,20.056 99.296,21.144 100.768,21.144 Z M111.104,14.424 C114.096,14.424 115.312,16.376 115.088,19.448 L108.656,19.448 C108.944,20.76 109.952,21.576 111.296,21.576 C112.224,21.576 113.072,21.224 113.696,20.584 L114.672,21.624 C113.84,22.536 112.624,23.064 111.152,23.064 C108.528,23.064 106.8,21.32 106.8,18.76 C106.8,16.184 108.576,14.44 111.104,14.424 Z M108.624,18.104 L113.488,18.104 C113.424,16.728 112.512,15.896 111.12,15.896 C109.776,15.896 108.832,16.744 108.624,18.104 Z M125.12,11.128 L125.12,23 L123.28,23 L123.28,21.544 C122.672,22.536 121.648,23.08 120.288,23.08 C117.84,23.08 116.208,21.304 116.208,18.712 C116.208,16.152 117.856,14.408 120.256,14.408 C121.632,14.408 122.656,14.968 123.28,15.96 L123.28,11.128 L125.12,11.128 Z M120.672,21.544 C122.208,21.544 123.28,20.392 123.28,18.776 C123.28,17.128 122.208,15.976 120.672,15.976 C119.136,15.976 118.064,17.144 118.048,18.776 C118.064,20.392 119.12,21.544 120.672,21.544 Z" id="Very-engaged" fill="#000000"></path>
        </g>
    </g>
</svg>