<?xml version="1.0" encoding="utf-8"?>
<!-- Generator: Adobe Illustrator 26.4.1, SVG Export Plug-In . SVG Version: 6.00 Build 0)  -->
<svg version="1.1" id="Layer_1" xmlns="http://www.w3.org/2000/svg" xmlns:xlink="http://www.w3.org/1999/xlink" x="0px" y="0px"
	 viewBox="0 0 1200 675" style="enable-background:new 0 0 1200 675;" xml:space="preserve">
<style type="text/css">
	.st0{filter:url(#Adobe_OpacityMaskFilter);}
	.st1{fill:#FFFFFF;}
	.st2{mask:url(#mask-2_00000178899671396830343280000015132950410554209727_);}
	.st3{fill:none;stroke:#979797;stroke-width:2;stroke-dasharray:3,3;}
	.st4{fill:none;stroke:#979797;stroke-linecap:square;stroke-dasharray:1,1,1;}
	.st5{fill-rule:evenodd;clip-rule:evenodd;fill:#FF66C4;}
	.st6{fill-rule:evenodd;clip-rule:evenodd;fill:#00C2CB;}
</style>
<defs>
	<filter id="Adobe_OpacityMaskFilter" filterUnits="userSpaceOnUse" x="0" y="-1" width="1202" height="677">
		<feColorMatrix  type="matrix" values="1 0 0 0 0  0 1 0 0 0  0 0 1 0 0  0 0 0 1 0"/>
	</filter>
</defs>
<mask maskUnits="userSpaceOnUse" x="0" y="-1" width="1202" height="677" id="mask-2_00000178899671396830343280000015132950410554209727_">
	<g class="st0">
		<path id="path-1_00000167361767328926219210000009863749895703837103_" class="st1" d="M1,0h1200v675H1V0z"/>
	</g>
</mask>
<g id="matrixlayout" class="st2">
	<g id="Rectangle-5-Copy">
		<path id="path-1_00000106851826992969586200000000150346262520265858_" class="st3" d="M1,0h1200v675H1V0z"/>
	</g>
	<path id="Line" class="st4" d="M600.5,0.5v674"/>
	<path id="Line-2" class="st4" d="M1.5,337.5h1199"/>
	<g id="Group" transform="translate(0.000000, 319.000000)">
		<rect id="Rectangle-21" x="1" class="st5" width="143" height="37"/>
		<g>
			<g>
				<path class="st1" d="M14.4,13.3h0.9l0.1,1.8h0.1c1.2-1.2,2.4-2.1,4-2.1c2.4,0,3.5,1.4,3.5,4.4v7.4h-1.1v-7.3
					c0-2.4-0.8-3.6-2.6-3.6c-1.4,0-2.4,0.7-3.8,2.2v8.7h-1.1V13.3z"/>
				<path class="st1" d="M26.2,19.1c0-3.9,2.4-6.1,5.2-6.1c2.8,0,5.2,2.2,5.2,6.1c0,3.8-2.4,6-5.2,6C28.6,25.1,26.2,22.9,26.2,19.1z
					 M35.4,19.1c0-3-1.7-5.1-4.1-5.1c-2.3,0-4.1,2.1-4.1,5.1c0,3,1.7,5.1,4.1,5.1C33.7,24.2,35.4,22.1,35.4,19.1z"/>
				<path class="st1" d="M40.3,21.7v-7.4h-1.8v-0.8l1.8-0.1l0.1-3.3h0.9v3.3h3.3v0.9h-3.3v7.5c0,1.5,0.4,2.5,2,2.5
					c0.4,0,1-0.2,1.4-0.4l0.3,0.9c-0.7,0.2-1.4,0.4-1.9,0.4C40.9,25.1,40.3,23.7,40.3,21.7z"/>
				<path class="st1" d="M51.3,19.1c0-3.8,2.4-6.1,5-6.1c2.7,0,4.4,1.9,4.4,5.3c0,0.3,0,0.6-0.1,0.9h-8.3c0,2.9,1.7,5,4.3,5
					c1.2,0,2.2-0.4,3.1-1l0.4,0.8c-0.9,0.6-1.9,1.1-3.6,1.1C53.7,25.1,51.3,22.9,51.3,19.1z M59.8,18.4c0-2.9-1.3-4.4-3.4-4.4
					c-1.9,0-3.7,1.7-4,4.4H59.8z"/>
				<path class="st1" d="M63.9,13.3h0.9l0.1,1.8h0.1c1.2-1.2,2.4-2.1,4-2.1c2.4,0,3.5,1.4,3.5,4.4v7.4h-1.1v-7.3
					c0-2.4-0.8-3.6-2.6-3.6c-1.4,0-2.4,0.7-3.8,2.2v8.7h-1.1V13.3z"/>
				<path class="st1" d="M75.7,27.2c0-1,0.7-2,1.7-2.8v-0.1c-0.6-0.3-1-1-1-1.8c0-1,0.7-1.8,1.3-2.1v-0.1c-0.7-0.6-1.5-1.8-1.5-3.2
					c0-2.4,1.8-4.1,4.1-4.1c0.6,0,1.2,0.1,1.5,0.3h3.9v0.9H83c0.7,0.6,1.3,1.7,1.3,2.9c0,2.4-1.8,4.1-4,4.1c-0.6,0-1.4-0.2-1.9-0.5
					c-0.5,0.4-0.9,0.9-0.9,1.7c0,0.8,0.5,1.5,2.2,1.5h2.5c2.6,0,3.8,0.8,3.8,2.6c0,2-2.1,3.9-5.4,3.9C77.5,30.4,75.7,29.1,75.7,27.2
					z M84.8,26.6c0-1.3-0.9-1.8-2.7-1.8h-2.5c-0.2,0-0.8,0-1.4-0.2c-1.1,0.7-1.5,1.6-1.5,2.4c0,1.5,1.4,2.4,3.8,2.4
					C83.1,29.5,84.8,28.1,84.8,26.6z M83.2,17.1c0-1.9-1.3-3.2-3-3.2s-3,1.2-3,3.2c0,1.9,1.4,3.2,3,3.2S83.2,19,83.2,17.1z"/>
				<path class="st1" d="M87.5,22c0-2.6,2.3-3.8,7.4-4.3c0-1.8-0.5-3.7-2.7-3.7c-1.6,0-2.9,0.8-3.7,1.4l-0.5-0.8
					c0.8-0.6,2.4-1.5,4.3-1.5c2.7,0,3.7,2,3.7,4.5v7.4h-0.9L95,23.3h-0.1c-1.2,0.9-2.6,1.8-4.1,1.8C89,25.1,87.5,24.1,87.5,22z
					 M94.9,22.4v-3.9c-4.7,0.5-6.4,1.6-6.4,3.5c0,1.7,1.1,2.3,2.4,2.3C92.4,24.2,93.5,23.6,94.9,22.4z"/>
				<path class="st1" d="M99.1,27.2c0-1,0.7-2,1.7-2.8v-0.1c-0.6-0.3-1-1-1-1.8c0-1,0.7-1.8,1.3-2.1v-0.1c-0.7-0.6-1.5-1.8-1.5-3.2
					c0-2.4,1.8-4.1,4.1-4.1c0.6,0,1.2,0.1,1.5,0.3h3.9v0.9h-2.7c0.7,0.6,1.3,1.7,1.3,2.9c0,2.4-1.8,4.1-4,4.1
					c-0.6,0-1.4-0.2-1.9-0.5c-0.5,0.4-0.9,0.9-0.9,1.7c0,0.8,0.5,1.5,2.2,1.5h2.5c2.6,0,3.8,0.8,3.8,2.6c0,2-2.1,3.9-5.4,3.9
					C101,30.4,99.1,29.1,99.1,27.2z M108.2,26.6c0-1.3-0.9-1.8-2.7-1.8h-2.5c-0.2,0-0.8,0-1.4-0.2c-1.1,0.7-1.5,1.6-1.5,2.4
					c0,1.5,1.4,2.4,3.8,2.4C106.6,29.5,108.2,28.1,108.2,26.6z M106.7,17.1c0-1.9-1.3-3.2-3-3.2s-3,1.2-3,3.2c0,1.9,1.4,3.2,3,3.2
					S106.7,19,106.7,17.1z"/>
				<path class="st1" d="M110.8,19.1c0-3.8,2.4-6.1,5-6.1c2.7,0,4.4,1.9,4.4,5.3c0,0.3,0,0.6-0.1,0.9h-8.3c0,2.9,1.7,5,4.3,5
					c1.2,0,2.2-0.4,3.1-1l0.4,0.8c-0.9,0.6-1.9,1.1-3.6,1.1C113.2,25.1,110.8,22.9,110.8,19.1z M119.3,18.4c0-2.9-1.3-4.4-3.4-4.4
					c-1.9,0-3.7,1.7-4,4.4H119.3z"/>
				<path class="st1" d="M122.4,19.1c0-3.7,2.4-6.1,5.1-6.1c1.4,0,2.3,0.5,3.5,1.4l-0.1-2.1V7.6h1.1v17.3h-0.9l-0.1-1.5H131
					c-0.9,0.9-2.2,1.8-3.8,1.8C124.3,25.1,122.4,23,122.4,19.1z M131,22.3v-6.8c-1.2-1.1-2.2-1.5-3.4-1.5c-2.3,0-4.1,2.2-4.1,5.1
					c0,3.1,1.4,5.1,3.8,5.1C128.6,24.2,129.8,23.5,131,22.3z"/>
			</g>
		</g>
	</g>
	<g id="Group-Copy-2" transform="translate(529.000000, 637.000000)">
		<rect id="Rectangle-21_00000151543076610957415710000012405864192493601458_" x="1" class="st6" width="143" height="37"/>
		<g>
			<g>
				<path class="st1" d="M60,13.1h1l0.1,1.9h0.1c1.3-1.3,2.6-2.2,4.3-2.2c2.6,0,3.8,1.6,3.8,4.8v8h-1.1v-7.9c0-2.6-0.8-3.9-2.8-3.9
					c-1.5,0-2.6,0.8-4.1,2.3v9.4H60V13.1z"/>
				<path class="st1" d="M72.8,19.4c0-4.2,2.6-6.6,5.6-6.6c3,0,5.6,2.4,5.6,6.6c0,4.1-2.6,6.5-5.6,6.5
					C75.4,25.9,72.8,23.5,72.8,19.4z M82.8,19.4c0-3.3-1.9-5.6-4.4-5.6c-2.5,0-4.4,2.3-4.4,5.6c0,3.3,1.9,5.5,4.4,5.5
					C80.9,24.9,82.8,22.6,82.8,19.4z"/>
			</g>
		</g>
	</g>
	<g id="Group-Copy-3" transform="translate(486.000000, 0.000000)">
		<rect id="Rectangle-21_00000148658797667265306030000004841592506511917714_" x="41.5" class="st6" width="143" height="37"/>
		<g>
			<g>
				<path class="st1" d="M98.7,30.1l0.3-1c0.3,0.1,0.7,0.2,1,0.2c1.5,0,2.6-1.4,3.2-3.3l0.3-1.1l-5.1-12.7h1.2l3,7.8
					c0.4,1.1,0.9,2.4,1.4,3.5h0.1c0.4-1.1,0.8-2.4,1.2-3.5l2.7-7.8h1.2l-4.9,14.1c-0.7,2.1-2,4.1-4.2,4.1
					C99.5,30.4,99,30.3,98.7,30.1z"/>
				<path class="st1" d="M110.8,18.5c0-4.1,2.6-6.6,5.4-6.6c3,0,4.8,2.1,4.8,5.8c0,0.3,0,0.6-0.1,0.9h-9c0,3.2,1.9,5.4,4.7,5.4
					c1.4,0,2.4-0.4,3.4-1.1l0.5,0.9c-1,0.6-2.1,1.2-3.9,1.2C113.4,25,110.8,22.6,110.8,18.5z M119.9,17.7c0-3.2-1.4-4.8-3.7-4.8
					c-2.1,0-4,1.8-4.3,4.8H119.9z"/>
				<path class="st1" d="M122.8,23.3l0.7-0.8c1.1,0.9,2.2,1.6,4,1.6c2,0,3-1.1,3-2.5c0-1.6-1.6-2.3-3.1-2.8c-1.9-0.7-4-1.4-4-3.6
					c0-1.8,1.4-3.3,4-3.3c1.3,0,2.7,0.6,3.6,1.3l-0.6,0.8c-0.8-0.6-1.7-1.1-3-1.1c-1.9,0-2.8,1.1-2.8,2.3c0,1.4,1.5,2,3,2.5
					c1.9,0.7,4.1,1.4,4.1,3.8c0,1.9-1.5,3.5-4.2,3.5C125.6,25,124,24.2,122.8,23.3z"/>
			</g>
		</g>
	</g>
	<g id="Group-Copy" transform="translate(1057.000000, 319.000000)">
		<rect id="Rectangle-21_00000013904548154661042880000000960846239548682404_" x="1" class="st5" width="143" height="37"/>
		<g>
			<g>
				<path class="st1" d="M8.5,13.4h1.1l2.6,7.2c0.4,1.1,0.8,2.3,1.2,3.3h0.1c0.4-1,0.8-2.2,1.2-3.3l2.6-7.2h1.1l-4.3,11.5h-1.3
					L8.5,13.4z"/>
				<path class="st1" d="M19.9,19.2c0-3.8,2.4-6.1,5-6.1c2.7,0,4.4,1.9,4.4,5.3c0,0.3,0,0.6-0.1,0.9h-8.3c0,2.9,1.7,5,4.3,5
					c1.2,0,2.2-0.4,3.1-1l0.4,0.8c-0.9,0.6-1.9,1.1-3.6,1.1C22.2,25.2,19.9,23,19.9,19.2z M28.3,18.5c0-2.9-1.3-4.4-3.4-4.4
					c-1.9,0-3.7,1.7-4,4.4H28.3z"/>
				<path class="st1" d="M32.4,13.4h0.9l0.1,2.2h0.1c0.8-1.4,1.9-2.4,3.3-2.4c0.4,0,0.8,0.1,1.1,0.2l-0.2,1c-0.4-0.1-0.6-0.2-1-0.2
					c-1,0-2.3,0.8-3.1,3v7.8h-1.1V13.4z"/>
				<path class="st1" d="M38.4,29.9l0.2-0.9c0.2,0.1,0.6,0.2,0.9,0.2c1.4,0,2.4-1.3,3-3.1l0.3-1l-4.7-11.7h1.1l2.8,7.2
					c0.4,1,0.8,2.2,1.3,3.2h0.1c0.4-1,0.7-2.3,1.1-3.2l2.5-7.2H48l-4.6,13c-0.6,1.9-1.8,3.8-3.9,3.8C39.1,30.2,38.7,30.1,38.4,29.9z
					"/>
				<path class="st1" d="M54.3,19.2c0-3.8,2.4-6.1,5-6.1c2.7,0,4.4,1.9,4.4,5.3c0,0.3,0,0.6-0.1,0.9h-8.3c0,2.9,1.7,5,4.3,5
					c1.2,0,2.2-0.4,3.1-1l0.4,0.8c-0.9,0.6-1.9,1.1-3.6,1.1C56.7,25.2,54.3,23,54.3,19.2z M62.8,18.5c0-2.9-1.3-4.4-3.4-4.4
					c-1.9,0-3.7,1.7-4,4.4H62.8z"/>
				<path class="st1" d="M66.9,13.4h0.9l0.1,1.8h0.1c1.2-1.2,2.4-2.1,4-2.1c2.4,0,3.5,1.4,3.5,4.4v7.4h-1.1v-7.3
					c0-2.4-0.8-3.6-2.6-3.6c-1.4,0-2.4,0.7-3.8,2.2v8.7h-1.1V13.4z"/>
				<path class="st1" d="M78.7,27.3c0-1,0.7-2,1.7-2.8v-0.1c-0.6-0.3-1-1-1-1.8c0-1,0.7-1.8,1.3-2.1v-0.1c-0.7-0.6-1.5-1.8-1.5-3.2
					c0-2.4,1.8-4.1,4.1-4.1c0.6,0,1.2,0.1,1.5,0.3h3.9v0.9H86c0.7,0.6,1.3,1.7,1.3,2.9c0,2.4-1.8,4.1-4,4.1c-0.6,0-1.4-0.2-1.9-0.5
					c-0.5,0.4-0.9,0.9-0.9,1.7c0,0.8,0.5,1.5,2.2,1.5h2.5c2.6,0,3.8,0.8,3.8,2.6c0,2-2.1,3.9-5.4,3.9C80.5,30.5,78.7,29.2,78.7,27.3
					z M87.8,26.7c0-1.3-0.9-1.8-2.7-1.8h-2.5c-0.2,0-0.8,0-1.4-0.2c-1.1,0.7-1.5,1.6-1.5,2.4c0,1.5,1.4,2.4,3.8,2.4
					C86.1,29.6,87.8,28.2,87.8,26.7z M86.2,17.2c0-1.9-1.3-3.2-3-3.2s-3,1.2-3,3.2c0,1.9,1.4,3.2,3,3.2S86.2,19.1,86.2,17.2z"/>
				<path class="st1" d="M90.5,22.1c0-2.6,2.3-3.8,7.4-4.3c0-1.8-0.5-3.7-2.7-3.7c-1.6,0-2.9,0.8-3.7,1.4l-0.5-0.8
					c0.8-0.6,2.4-1.5,4.3-1.5c2.7,0,3.7,2,3.7,4.5v7.4h-0.9L98,23.4h-0.1c-1.2,0.9-2.6,1.8-4.1,1.8C92,25.2,90.5,24.2,90.5,22.1z
					 M97.9,22.5v-3.9c-4.7,0.5-6.4,1.6-6.4,3.5c0,1.7,1.1,2.3,2.4,2.3C95.4,24.3,96.5,23.7,97.9,22.5z"/>
				<path class="st1" d="M102.1,27.3c0-1,0.7-2,1.7-2.8v-0.1c-0.6-0.3-1-1-1-1.8c0-1,0.7-1.8,1.3-2.1v-0.1c-0.7-0.6-1.5-1.8-1.5-3.2
					c0-2.4,1.8-4.1,4.1-4.1c0.6,0,1.2,0.1,1.5,0.3h3.9v0.9h-2.7c0.7,0.6,1.3,1.7,1.3,2.9c0,2.4-1.8,4.1-4,4.1
					c-0.6,0-1.4-0.2-1.9-0.5c-0.5,0.4-0.9,0.9-0.9,1.7c0,0.8,0.5,1.5,2.2,1.5h2.5c2.6,0,3.8,0.8,3.8,2.6c0,2-2.1,3.9-5.4,3.9
					C104,30.5,102.1,29.2,102.1,27.3z M111.2,26.7c0-1.3-0.9-1.8-2.7-1.8h-2.5c-0.2,0-0.8,0-1.4-0.2c-1.1,0.7-1.5,1.6-1.5,2.4
					c0,1.5,1.4,2.4,3.8,2.4C109.6,29.6,111.2,28.2,111.2,26.7z M109.7,17.2c0-1.9-1.3-3.2-3-3.2s-3,1.2-3,3.2c0,1.9,1.4,3.2,3,3.2
					S109.7,19.1,109.7,17.2z"/>
				<path class="st1" d="M113.8,19.2c0-3.8,2.4-6.1,5-6.1c2.7,0,4.4,1.9,4.4,5.3c0,0.3,0,0.6-0.1,0.9h-8.3c0,2.9,1.7,5,4.3,5
					c1.2,0,2.2-0.4,3.1-1l0.4,0.8c-0.9,0.6-1.9,1.1-3.6,1.1C116.2,25.2,113.8,23,113.8,19.2z M122.3,18.5c0-2.9-1.3-4.4-3.4-4.4
					c-1.9,0-3.7,1.7-4,4.4H122.3z"/>
				<path class="st1" d="M125.4,19.2c0-3.7,2.4-6.1,5.1-6.1c1.4,0,2.3,0.5,3.5,1.4l-0.1-2.1V7.7h1.1v17.3h-0.9l-0.1-1.5H134
					c-0.9,0.9-2.2,1.8-3.8,1.8C127.3,25.2,125.4,23.1,125.4,19.2z M134,22.4v-6.8c-1.2-1.1-2.2-1.5-3.4-1.5c-2.3,0-4.1,2.2-4.1,5.1
					c0,3.1,1.4,5.1,3.8,5.1C131.6,24.3,132.8,23.6,134,22.4z"/>
			</g>
		</g>
	</g>
</g>
</svg>
